<?xml version="1.0" standalone="no"?>
<!DOCTYPE svg PUBLIC "-//W3C//DTD SVG 20010904//EN"
 "http://www.w3.org/TR/2001/REC-SVG-20010904/DTD/svg10.dtd">
<svg version="1.0" xmlns="http://www.w3.org/2000/svg"
 width="1200.000000pt" height="1200.000000pt" viewBox="0 0 1200.000000 1200.000000"
 preserveAspectRatio="xMidYMid meet">

<g transform="translate(0.000000,1200.000000) scale(0.100000,-0.100000)"
fill="#000000" stroke="none">
<path d="M6290 9367 c-223 -100 -368 -175 -765 -396 -269 -150 -494 -278 -500
-284 -7 -6 -7 -8 0 -4 28 15 466 207 473 207 4 -1 126 -187 272 -415 146 -228
267 -415 270 -415 6 0 1061 588 1068 595 6 5 -528 835 -536 835 -4 0 -131 -56
-282 -123z"/>
<path d="M8993 8031 c-17 -11 -34 -17 -37 -14 -3 4 -6 1 -6 -6 0 -7 -4 -9 -10
-6 -5 3 -10 1 -10 -5 0 -6 -4 -9 -9 -6 -14 9 -421 -177 -588 -270 -87 -48
-218 -120 -291 -161 l-133 -73 -394 219 -395 219 0 -237 0 -237 -541 -301
-540 -301 -537 299 -537 298 -5 240 -5 239 -246 -137 -246 -137 158 -244 158
-245 1 -161 c0 -113 4 -164 13 -173 10 -11 9 -13 0 -7 -10 6 -13 -84 -13 -432
l0 -440 -532 -297 c-293 -164 -538 -298 -543 -298 -6 0 -252 134 -548 299
l-537 299 -2 156 -3 155 -420 -233 c-231 -129 -430 -239 -442 -246 -20 -11 14
-32 390 -241 227 -126 710 -395 1075 -598 l663 -370 422 235 c667 371 1647
916 1706 950 30 17 51 25 48 20 -4 -7 52 -44 140 -94 82 -45 564 -313 1073
-596 896 -499 925 -514 950 -500 22 13 1739 968 2013 1120 60 33 105 63 100
67 -10 9 -750 420 -756 420 -2 0 -4 -41 -4 -90 0 -50 -4 -95 -9 -99 -15 -15
-1058 -594 -1069 -594 -6 0 -252 134 -548 299 l-537 299 0 257 c0 142 0 341 0
443 0 102 0 256 0 343 l0 158 93 39 c50 21 170 74 266 117 96 43 178 78 182
78 3 0 46 -62 94 -137 49 -76 121 -187 161 -248 39 -60 116 -180 169 -265 54
-85 103 -161 110 -169 11 -11 46 5 217 102 111 63 352 198 534 299 l331 184
-266 416 c-146 230 -268 417 -271 417 -3 1 -19 -8 -37 -18z m-4013 -1307 c0
-2 -9 0 -20 6 -11 6 -20 13 -20 16 0 2 9 0 20 -6 11 -6 20 -13 20 -16z m250
-140 c0 -2 -9 0 -20 6 -11 6 -20 13 -20 16 0 2 9 0 20 -6 11 -6 20 -13 20 -16z
m180 -100 c0 -2 -9 0 -20 6 -11 6 -20 13 -20 16 0 2 9 0 20 -6 11 -6 20 -13
20 -16z m180 -100 c0 -2 -9 0 -20 6 -11 6 -20 13 -20 16 0 2 9 0 20 -6 11 -6
20 -13 20 -16z"/>
<path d="M6722 3735 c-35 -8 -78 -23 -97 -35 -58 -36 -112 -106 -137 -178 -20
-59 -23 -86 -23 -222 0 -176 12 -227 72 -317 62 -93 157 -137 294 -137 77 0
93 3 152 32 76 38 124 89 162 176 29 65 34 59 -76 79 l-76 14 -12 -33 c-29
-80 -97 -129 -167 -121 -58 6 -98 38 -130 104 -24 48 -28 71 -32 167 -9 225
47 331 173 331 48 0 58 -4 90 -35 19 -19 41 -49 47 -67 8 -21 19 -33 30 -33
18 0 149 30 157 36 1 1 -8 27 -21 56 -47 103 -123 166 -226 187 -66 14 -101
13 -180 -4z"/>
<path d="M5060 3665 l0 -75 101 0 100 0 -3 -262 c-3 -256 -4 -264 -26 -295
-60 -84 -164 -36 -188 86 -5 25 -10 30 -28 26 -11 -3 -52 -10 -91 -15 -38 -6
-71 -13 -73 -15 -6 -6 19 -88 39 -126 26 -52 101 -114 156 -130 27 -8 80 -13
119 -13 122 2 210 57 256 158 22 50 23 60 26 394 l3 342 -195 0 -196 0 0 -75z"/>
<path d="M5870 3665 l0 -75 101 0 100 0 -3 -262 c-3 -256 -4 -264 -26 -295
-60 -84 -164 -36 -188 86 -5 25 -10 30 -28 26 -11 -3 -52 -10 -91 -15 -38 -6
-71 -13 -73 -15 -6 -6 19 -88 39 -126 26 -52 101 -114 156 -130 27 -8 80 -13
119 -13 122 2 210 57 256 158 22 50 23 60 26 394 l3 342 -195 0 -196 0 0 -75z"/>
<path d="M2170 2260 l0 -40 40 0 40 0 0 40 0 40 -40 0 -40 0 0 -40z"/>
<path d="M4770 1975 l0 -325 34 0 c31 0 34 3 40 35 l7 34 27 -30 c45 -50 132
-60 204 -23 84 43 113 294 46 402 -21 35 -85 71 -123 72 -43 0 -100 -23 -127
-52 l-28 -30 0 121 0 121 -40 0 -40 0 0 -325z m266 87 c35 -28 46 -60 51 -146
9 -147 -27 -216 -112 -216 -26 0 -55 5 -67 11 -34 18 -58 86 -58 168 0 93 16
145 53 177 35 29 101 33 133 6z"/>
<path d="M5620 2260 l0 -40 40 0 40 0 0 40 0 40 -40 0 -40 0 0 -40z"/>
<path d="M6190 2270 l0 -30 65 0 65 0 0 -265 0 -265 -95 0 -95 0 0 -30 0 -30
215 0 215 0 0 30 0 30 -85 0 -85 0 0 295 0 295 -100 0 -100 0 0 -30z"/>
<path d="M7000 2260 l0 -40 40 0 40 0 0 40 0 40 -40 0 -40 0 0 -40z"/>
<path d="M9070 2260 l0 -40 40 0 40 0 0 40 0 40 -40 0 -40 0 0 -40z"/>
<path d="M2873 2129 c-18 -5 -48 -26 -68 -46 l-35 -36 0 41 c0 41 -1 42 -35
42 l-35 0 0 -240 0 -240 40 0 40 0 0 169 c0 158 1 170 23 202 27 40 60 59 104
59 84 0 93 -23 93 -250 l0 -180 41 0 41 0 -4 198 c-3 213 -8 232 -61 267 -30
19 -103 27 -144 14z"/>
<path d="M3483 2130 c-13 -5 -32 -24 -43 -42 l-20 -33 0 38 c0 34 -2 37 -30
37 l-30 0 0 -240 0 -240 34 0 34 0 4 188 c3 159 6 192 21 215 22 34 61 36 79
5 8 -16 14 -86 16 -215 l4 -193 29 0 29 0 0 138 c0 211 20 292 71 292 42 0 49
-33 49 -237 l0 -193 35 0 35 0 -1 198 c0 220 -8 259 -53 281 -41 19 -101 0
-121 -39 -19 -37 -24 -37 -36 -1 -9 27 -45 52 -72 50 -7 0 -22 -4 -34 -9z"/>
<path d="M4213 2130 c-57 -13 -96 -44 -123 -95 -22 -43 -25 -62 -25 -145 0
-79 4 -103 23 -143 34 -68 95 -102 182 -101 76 1 115 18 159 71 71 86 64 290
-11 371 -23 24 -105 53 -147 51 -14 -1 -40 -4 -58 -9z m136 -76 c36 -30 51
-77 51 -163 0 -130 -41 -191 -130 -191 -90 0 -130 58 -130 190 0 132 40 190
130 190 37 0 55 -6 79 -26z"/>
<path d="M7641 2128 c-50 -14 -77 -35 -96 -74 -9 -20 -15 -37 -13 -38 1 -2 20
-6 41 -9 29 -4 37 -2 37 9 0 8 11 26 25 39 18 19 35 25 69 25 24 0 52 -3 61
-6 22 -9 45 -57 45 -97 l0 -34 -90 -6 c-100 -8 -144 -22 -179 -60 -49 -54 -35
-174 25 -214 64 -41 190 -12 224 52 16 30 30 32 30 4 0 -52 48 -85 107 -74 40
7 48 45 10 45 -42 0 -47 16 -47 159 0 75 -5 153 -9 175 -21 90 -128 137 -240
104z m169 -278 c0 -81 -52 -140 -129 -148 -64 -6 -91 18 -91 81 0 73 49 103
173 106 l47 1 0 -40z"/>
<path d="M8445 2125 c-22 -8 -41 -15 -43 -15 -1 0 -15 -20 -31 -45 l-29 -45
-6 37 c-13 70 -15 73 -53 73 -32 0 -35 -2 -28 -22 5 -13 10 -121 12 -240 l5
-218 39 0 39 0 0 148 c0 134 2 151 23 186 37 65 67 81 153 81 l74 0 0 31 c0
27 -4 32 -31 38 -47 9 -80 7 -124 -9z"/>
<path d="M9711 2128 c-50 -14 -77 -35 -96 -74 -9 -20 -15 -37 -13 -38 1 -2 20
-6 41 -9 29 -4 37 -2 37 9 0 8 11 26 25 39 18 19 35 25 69 25 24 0 52 -3 61
-6 22 -9 45 -57 45 -97 l0 -34 -90 -6 c-100 -8 -144 -22 -179 -60 -49 -54 -35
-174 25 -214 64 -41 190 -12 224 52 16 30 30 32 30 4 0 -52 48 -85 107 -74 40
7 48 45 10 45 -42 0 -47 16 -47 159 0 75 -5 153 -9 175 -21 90 -128 137 -240
104z m169 -278 c0 -81 -52 -140 -129 -148 -64 -6 -91 18 -91 81 0 73 49 103
173 106 l47 1 0 -40z"/>
<path d="M2040 2100 l0 -30 70 0 70 0 0 -180 0 -180 -90 0 -90 0 0 -30 0 -30
210 0 210 0 0 30 0 29 -82 3 -83 3 -3 208 -2 207 -105 0 -105 0 0 -30z"/>
<path d="M5490 2100 l0 -30 70 0 70 0 0 -180 0 -180 -90 0 -90 0 0 -30 0 -30
210 0 210 0 0 30 0 29 -82 3 -83 3 -3 208 -2 207 -105 0 -105 0 0 -30z"/>
<path d="M6870 2100 l0 -30 70 0 70 0 0 -180 0 -180 -90 0 -90 0 0 -30 0 -30
210 0 210 0 0 30 0 29 -82 3 -83 3 -3 208 -2 207 -105 0 -105 0 0 -30z"/>
<path d="M8940 2100 l0 -30 70 0 70 0 0 -180 0 -180 -90 0 -90 0 0 -30 0 -30
210 0 210 0 0 30 0 29 -82 3 -83 3 -3 208 -2 207 -105 0 -105 0 0 -30z"/>
</g>
</svg>
